<?xml version="1.0" standalone="no"?>
<!DOCTYPE svg PUBLIC "-//W3C//DTD SVG 1.1//EN" "http://www.w3.org/Graphics/SVG/1.1/DTD/svg11.dtd" >
<!--
2013-9-30: Created.
-->
<svg>
<metadata>
Created by iconfont
</metadata>
<defs>

<font id="iconfont" horiz-adv-x="1024" >
  <font-face
    font-family="iconfont"
    font-weight="500"
    font-stretch="normal"
    units-per-em="1024"
    ascent="896"
    descent="-128"
  />
    <missing-glyph />
    
    <glyph glyph-name="suijibofang" unicode="&#58920;" d="M503.212 412.38c48.02 47.603 109.809 68.831 200.348 68.831l4.625 0 0-51.633c0-16.49 11.334-22.663 25.186-13.716l124.264 80.254c13.852 8.946 13.717 23.371-0.301 32.055l-123.662 76.61c-14.017 8.685-25.486 2.298-25.486-14.192l0-51.378-4.625 0c-105.604 0-182.241-27.212-241.181-85.639-59.046-58.532-60.589-112.848-61.83-156.492-0.532-18.725-0.991-34.896-5.667-49.654-10.522-33.214-38.07-63.935-77.57-86.504-49.704-28.4-116.796-42.932-193.967-42.096-0.11 0.001-0.22 0.002-0.33 0.002-15.865 0-28.814-12.771-28.992-28.677-0.179-16.015 12.659-29.143 28.675-29.321 2.402-0.027 4.795-0.04 7.182-0.04 42.758 0 82.892 4.298 119.396 12.793 35.926 8.36 68.498 20.803 96.811 36.979 52.187 29.818 89.152 72.203 104.087 119.347 7.129 22.505 7.751 44.374 8.352 65.523C459.667 335.547 460.651 370.19 503.212 412.38zM123.347 481.174c97.024 1.086 178.164-22.495 228.401-66.391 5.499-4.805 12.299-7.163 19.07-7.163 8.079 0 16.116 3.357 21.85 9.919 10.539 12.061 9.304 30.381-2.756 40.919-29.181 25.497-65.695 45.388-108.529 59.12-46.728 14.979-100.112 22.25-158.682 21.591-16.015-0.179-28.853-13.306-28.674-29.322C94.203 493.833 107.314 480.956 123.347 481.174zM857.334 107.75l-123.662 76.61c-14.017 8.685-25.486 2.298-25.486-14.192l0-51.379-4.625 0c-80.96 0-143.128 24.247-195.645 76.307-11.375 11.274-29.737 11.196-41.012-0.18-11.275-11.374-11.195-29.736 0.18-41.012 63.207-62.657 140.56-93.115 236.477-93.115l4.625 0 0-51.632c0-16.49 11.334-22.663 25.186-13.716l124.264 80.254C871.486 84.641 871.352 99.066 857.334 107.75z"  horiz-adv-x="1024" />

    
    <glyph glyph-name="danquxunhuan" unicode="&#58883;" d="M659.437037 61.553778 380.776296 61.553778l101.963852-102.172444c11.320889-11.320889 11.320889-29.696 0-41.035852-11.320889-11.339852-29.639111-11.339852-40.96 0l-150.20563 150.509037c-11.301926 11.320889-11.301926 29.696 0 41.035852 11.264 11.282963 30.568296 9.159111 49.891556 9.159111l0 0c6.618074-0.493037 13.217185-1.005037 19.949037-1.005037l298.875259 0c147.683556 0 267.396741 119.011556 267.396741 265.822815 0 87.058963-42.287407 164.086519-107.349333 212.574815l0 0c-5.404444 5.176889-8.836741 12.382815-8.836741 20.442074 0 15.720296 12.743111 28.444444 28.444444 28.444444 8.969481 0 16.630519-4.399407 21.845333-10.884741 74.884741-59.050667 124.150519-148.612741 124.150519-250.576593C985.92237 205.842963 839.755852 61.553778 659.437037 61.553778zM710.580148 658.469926c-8.00237-7.983407-22.300444-12.951704-32.331852-9.690074l0 0c-5.973333 0.398222-11.908741 0.910222-17.976889 0.910222L361.396148 649.690074c-147.683556 0-267.415704-119.011556-267.415704-265.822815 0-82.697481 38.437926-156.046222 98.038519-204.781037 11.036444-3.90637 17.825185-14.715259 17.825185-27.079111 0-15.701333-12.743111-28.444444-28.444444-28.444444-7.300741 0-13.805037 2.958222-18.830222 7.471407l0.360296-0.341333c-75.927704 59.012741-124.852148 150.376296-124.852148 253.174519 0 177.98637 146.166519 322.294519 326.485333 322.294519l257.403259 0-102.665481 102.798222c-11.320889 11.339852-11.320889 29.733926 0 41.054815 11.320889 11.320889 29.696 11.320889 40.997926 0l147.702519-147.930074c6.257778-5.594074 9.291852-14.032593 9.291852-14.032593C720.611556 677.963852 718.582519 666.491259 710.580148 658.469926zM532.043852 232.485926c-15.701333 0-28.444444 12.743111-28.444444 28.444444l0 218.074074-9.481481 0c-15.701333 0-28.444444 12.743111-28.444444 28.444444s12.743111 28.444444 28.444444 28.444444l37.925926 0c15.701333 0 28.444444-12.743111 28.444444-28.444444l0-246.518519C560.488296 245.210074 547.745185 232.485926 532.043852 232.485926z"  horiz-adv-x="1024" />

    
    <glyph glyph-name="heart" unicode="&#58888;" d="M511.623-7.958c-3.718 0-7.473 0.816-10.957 2.52-1.421 0.679-2.78 1.482-4.065 2.447-22.976 16.255-422.634 302.005-432.405 509.319-4.014 85.335 16.282 152.016 60.332 198.198 55.663 58.344 133.685 67.052 175.24 67.052 102.27 0 177.536-65.792 211.879-102.945 34.341 37.152 109.608 102.945 211.88 102.945 41.554 0 119.575-8.709 175.238-67.052 44.051-46.182 64.348-112.862 60.333-198.198-9.772-207.222-409.083-492.817-432.379-509.295-1.373-1.012-2.831-1.89-4.349-2.593-3.386-1.582-7.006-2.372-10.612-2.398-0.038 0-0.087 0-0.136 0zM299.769 720.98c-33.465 0-95.971-6.677-138.625-51.382-34.131-35.781-49.745-89.912-46.398-160.885 6.918-146.833 276.090-372.337 396.902-460.23 120.812 87.941 389.996 313.5 396.902 460.23 3.347 70.973-12.267 125.104-46.399 160.885-42.655 44.705-105.16 51.382-138.624 51.382-110.708 0-186.406-99.806-191.089-106.131-0.851-1.235-1.829-2.397-2.903-3.477-2.123-2.132-4.57-3.817-7.201-5.040-3.411-1.587-7.041-2.36-10.662-2.36 0 0-0.024 0-0.049 0-3.595 0-7.201 0.76-10.587 2.328-2.667 1.229-5.15 2.934-7.3 5.095-1.063 1.062-2.014 2.205-2.853 3.41-4.422 5.943-80.8 106.175-191.113 106.175z"  horiz-adv-x="1024" />

    
    <glyph glyph-name="sousuo" unicode="&#58928;" d="M452.605917 64.676445c-211.505599 0-383.573537 172.066939-383.573537 383.572938 0 211.495006 172.067938 383.562944 383.573537 383.562944 211.506599 0 383.58433-172.067938 383.58433-383.562944S664.112516 64.676445 452.605917 64.676445M452.605917 737.405535c-159.446096 0-289.161149-129.720649-289.161149-289.156152 0-159.445496 129.715253-289.156152 289.161149-289.156152s289.166745 129.710656 289.166745 289.156152C741.772662 607.684886 612.052013 737.405535 452.605917 737.405535M900.611569-57.828296c-14.873716 0-29.741835 5.665159-41.087942 17.00647L659.124897 159.570907c-22.686618 22.681622-22.686618 59.472478 0 82.165092 22.69861 22.681622 59.48347 22.681622 82.176085 0L941.693516 41.354458c22.692614-22.693614 22.692614-59.48367 0-82.176085C930.347209-52.162938 915.484486-57.828296 900.611569-57.828296"  horiz-adv-x="1024" />

    
    <glyph glyph-name="gengduo" unicode="&#58893;" d="M512 32.638976m-109.441024 0a53.438 53.438 0 1 0 218.882048 0 53.438 53.438 0 1 0-218.882048 0ZM512 378.238976m-109.441024 0a53.438 53.438 0 1 0 218.882048 0 53.438 53.438 0 1 0-218.882048 0ZM512 735.358976m-109.441024 0a53.438 53.438 0 1 0 218.882048 0 53.438 53.438 0 1 0-218.882048 0Z"  horiz-adv-x="1024" />

    
    <glyph glyph-name="xunhuanbofang" unicode="&#58880;" d="M193.225 274.885c17.818 4.943 28.242 23.401 23.298 41.198-5.543 19.981-8.363 40.725-8.363 61.695 0 126.768 103.141 229.909 229.909 229.909h311.524v-59.306c0-19.034 13.245-26.408 29.416-16.376l142.733 88.414c16.17 10.031 16.334 26.677 0.351 36.997l-143.433 92.635c-15.984 10.32-29.065 3.193-29.065-15.82v-59.594h-311.545c-79.287 0-153.836-30.878-209.907-86.95-56.050-56.072-86.93-130.62-86.93-209.907 0-27.026 3.646-53.806 10.815-79.616 4.12-14.812 17.572-24.514 32.239-24.514 2.947 0 5.974 0.39 8.961 1.236zM964.362 483.082c-4.12 14.812-17.572 24.514-32.239 24.514-2.966 0-5.974-0.39-8.981-1.236-17.818-4.943-28.242-23.401-23.298-41.198 5.542-19.981 8.363-40.725 8.363-61.695 0-126.768-103.142-229.909-229.909-229.909h-311.504v59.306c0 19.034-13.245 26.408-29.416 16.376l-142.733-88.414c-16.17-10.031-16.334-26.677-0.351-36.997l143.413-92.635c15.985-10.32 29.065-3.193 29.065 15.82v59.594h311.524c79.287 0 153.836 30.878 209.907 86.95s86.95 130.62 86.95 209.907c0 27.007-3.625 53.806-10.793 79.616z"  horiz-adv-x="1167" />

    
    <glyph glyph-name="fenxiang" unicode="&#58940;" d="M746.13248 242.304c-48.31232 0-94.05952-22.85568-123.35104-61.37344l-261.57056 160.9728a154.48576 154.48576 0 0 1 6.53312 44.33408c0 10.6496-1.21856 21.63712-3.62496 32.7168l252.5952 156.928c28.83072-43.91936 76.8256-69.98528 129.39264-69.98528 85.43744 0 154.94656 69.49888 154.94656 154.91584 0.01536 41.39008-16.09728 80.3072-45.35808 109.57824-29.2608 29.27104-68.1728 45.39392-109.56288 45.39392-85.43744 0-154.94144-69.50912-154.94144-154.94656 0-4.29568 0.18944-8.69376 0.56832-13.11744L331.3152 485.93408c-29.5936 35.2-72.5248 55.296-118.49728 55.296-85.43744 0-154.94656-69.51936-154.94656-154.96704 0-85.43744 69.50912-154.94144 154.94656-154.94144 41.4464 0 81.536 16.9728 110.64832 46.70976l269.7984-166.05184a151.00416 151.00416 0 0 1-2.05824-24.6016c0-85.4272 69.50912-154.92096 154.94656-154.92096s154.94656 69.49376 154.94656 154.92096c-0.02048 85.4272-69.53984 154.92608-154.96704 154.92608z m-0.512-73.91744c44.04224 0 79.872-35.82464 79.872-79.86176 0.01024-21.33504-8.2944-41.3952-23.38304-56.48384s-35.1488-23.3984-56.48384-23.3984c-44.04224 0-79.872 35.84-79.872 79.89248-0.00512 44.02688 35.82464 79.85152 79.86688 79.85152z m0 573.50144c44.04224 0 79.872-35.81952 79.872-79.85152 0-44.05248-35.82976-79.89248-79.872-79.89248s-79.872 35.84-79.872 79.89248c0 44.032 35.82976 79.85152 79.872 79.85152zM212.28544 467.28704c44.04224 0 79.872-35.82976 79.872-79.87712a79.29856 79.29856 0 0 0-23.37792-56.47872 79.37024 79.37024 0 0 0-56.49408-23.38816c-44.04224 0-79.872 35.82976-79.872 79.872s35.82976 79.872 79.872 79.872z"  horiz-adv-x="1024" />

    
    <glyph glyph-name="xiazai" unicode="&#58889;" d="M950.104 654.062c-6.162 13.261-21.91 18.99-35.146 12.84-13.261-6.162-19.003-21.897-12.829-35.146 26.45-56.888 39.854-117.811 39.854-181.065 0-237.088-192.896-429.984-429.984-429.984-237.099 0-429.984 192.896-429.984 429.984 0 63.241 13.405 124.153 39.843 181.041 6.162 13.261 0.409 28.996-12.84 35.146-13.273 6.162-28.996 0.409-35.146-12.84-29.717-63.927-44.779-132.333-44.779-203.347 0-266.276 216.632-482.908 482.908-482.908s482.908 216.632 482.908 482.908c0 71.026-15.075 139.445-44.804 203.37zM499.989 212.523L637.09 349.624c9.381 9.381 9.381 24.588 0 33.97s-24.588 9.381-33.97 0l-79.109-79.109V775.009c0 13.261-10.762 24.024-24.024 24.024s-24.024-10.762-24.024-24.024v-470.524l-79.097 79.109c-9.369 9.381-24.6 9.381-33.97 0-9.381-9.381-9.381-24.588 0-33.97l137.09-137.101z"  horiz-adv-x="1024" />

    
    <glyph glyph-name="paihangbang-" unicode="&#59074;" d="M218.4704 81.69472a81.54112 81.54112 0 0 0-163.072 0V405.32992a81.53088 81.53088 0 1 0 163.072 0v-323.6352zM966.0928 81.69472a81.54112 81.54112 0 0 0-163.08224 0V405.32992a81.54112 81.54112 0 0 0 163.08224 0v-323.6352zM627.4048 143.58528c0-79.21664-49.41824-143.43168-110.3872-143.43168s-110.3872 64.21504-110.3872 143.43168V712.88832c0 79.21664 49.41824 143.43168 110.3872 143.43168 60.95872 0 110.3872-64.21504 110.3872-143.43168v-569.30304zM271.3088 82.49344c-3.69664-62.96576-55.40864-112.98816-119.27552-112.98816h-21.80096C63.95904-30.49472 10.24 23.22432 10.24 89.4976v69.35552a746.8544 746.8544 0 0 1 261.0688-76.35968z m393.41056 65.80224v-36.98688c0-78.32576-63.49824-141.78304-141.81376-141.78304h-21.80096c-67.15392 0-123.07456 46.77632-137.75872 109.43488 107.49952 2.10944 209.44896 26.68544 301.37344 69.33504zM1004.544 462.6944c5.888-14.1824 9.20576-29.68576 9.20576-45.95712V89.4976c0-66.27328-53.71904-119.99232-119.99232-119.99232h-21.80096c-66.27328 0-119.99232 53.71904-119.99232 119.99232V196.08576A755.47648 755.47648 0 0 1 1004.544 462.6944zM893.76768-30.49472h-21.80096c-66.27328 0-119.99232 53.71904-119.99232 119.99232V416.73728c0 66.24256 53.71904 119.95136 119.99232 119.95136h21.80096C960.04096 536.68864 1013.76 482.9696 1013.76 416.73728V89.4976c0-66.27328-53.71904-119.99232-119.99232-119.99232z m54.55872 447.232a54.55872 54.55872 0 0 1-54.55872 54.528h-21.80096a54.55872 54.55872 0 0 1-54.55872-54.528V89.4976a54.56896 54.56896 0 0 1 54.55872-54.55872h21.80096a54.56896 54.56896 0 0 1 54.55872 54.55872V416.73728zM522.89536-30.49472h-21.80096c-78.32576 0-141.81376 63.46752-141.81376 141.78304V743.97696C359.28064 822.26176 422.77888 885.76 501.10464 885.76h21.80096c78.32576 0 141.81376-63.49824 141.81376-141.78304v-632.6784c0-78.32576-63.49824-141.79328-141.824-141.79328z m76.35968 774.44096a76.35968 76.35968 0 0 1-76.35968 76.35968h-21.80096a76.35968 76.35968 0 0 1-76.35968-76.35968v-632.64768a76.35968 76.35968 0 0 1 76.35968-76.35968h21.80096a76.35968 76.35968 0 0 1 76.35968 76.35968V743.94624zM152.02304-30.49472h-21.80096C63.95904-30.49472 10.24 23.22432 10.24 89.4976V416.73728c0 66.24256 53.71904 119.95136 119.99232 119.95136h21.80096c66.27328 0 119.99232-53.71904 119.99232-119.95136V89.4976c-0.01024-66.27328-53.72928-119.99232-120.00256-119.99232z m54.56896 447.232a54.55872 54.55872 0 0 1-54.55872 54.528h-21.80096a54.55872 54.55872 0 0 1-54.55872-54.528V89.4976a54.56896 54.56896 0 0 1 54.55872-54.55872h21.80096a54.56896 54.56896 0 0 1 54.55872 54.55872V416.73728zM10.24-52.3264h1003.52V-117.76H10.24z"  horiz-adv-x="1024" />

    
    <glyph glyph-name="bofang" unicode="&#58968;" d="M479.4 280.9c1 0 2-0.1 3-0.1 1 0.1 2 0.1 3 0.1h-6zM485.3 64.2c-1 0-2 0.1-3 0.1-1-0.1-2-0.1-3-0.1h6zM512 895.8C229.7 895.8 0 666.5 0 384.2s229.7-512 512-512 512 229.7 512 512C1023.6 666.5 793.9 895.8 512 895.8z m0-982.5c-259.7 0-470.9 211.2-470.9 470.9S252.3 855.1 512 855.1s470.5-211.6 470.5-470.9c0-259.7-211.2-470.9-470.5-470.9zM665.7 426.5L468.4 540.4c-9.9 5.8-19.7 8.6-29.2 8.6-26.3 0-44.4-21-44.4-51v-226.8c0-14 3.7-26.3 11.1-35.3 8.2-10.3 19.7-15.6 33.3-15.6 9.5 0 19.3 2.9 29.2 8.6l197.2 113.4c17.7 10.3 27.9 25.5 27.9 42.3 0.1 16-10.1 31.7-27.8 41.9z m-20.6-49.3L447.9 263.8c-4.9-2.9-7.8-2.9-8.6-2.9h-0.8c-0.4 0.4-2.5 2.9-2.5 9.9V497.6c0 7 1.6 9.5 2.5 9.9h0.8c1.2 0 4.1-0.4 8.6-2.9l197.2-113.8c5.8-3.3 7.4-6.2 7.4-6.6 0-0.8-1.6-3.7-7.4-7z"  horiz-adv-x="1024" />

    
    <glyph glyph-name="jiarushoucang" unicode="&#58917;" d="M469.577143 822.857143l83.382857-243.565714a73.142857 73.142857 0 0 1 69.485714-49.737143H1097.142857v-512a73.142857 73.142857 0 0 0-73.142857-73.142857H146.285714a73.142857 73.142857 0 0 0-73.142857 73.142857V784.091429A39.497143 39.497143 0 0 0 111.908571 822.857143h357.668572m0 73.142857H111.908571A112.64 112.64 0 0 1 0 784.091429V18.285714a146.285714 146.285714 0 0 1 146.285714-146.285714h877.714286a146.285714 146.285714 0 0 1 146.285714 146.285714V548.571429a54.857143 54.857143 0 0 1-54.857143 54.857142H622.445714L539.062857 846.262857A73.142857 73.142857 0 0 1 469.577143 896zM919.405714 822.857143H512v-73.142857h405.211429a33.645714 33.645714 0 0 0 33.645714-33.645715V530.285714h73.142857V718.262857A104.594286 104.594286 0 0 1 919.405714 822.857143zM365.714286 310.857143h365.714285v-73.142857H365.714286zM512 457.142857h73.142857v-365.714286H512z"  horiz-adv-x="1170" />

    
    <glyph glyph-name="bofang02" unicode="&#58882;" d="M384 143.712V606.816l299.68-231.552L384 143.712z m371.552 256.896l-384 296.704a31.936 31.936 0 0 1-51.552-25.28v-593.504a32 32 0 0 1 51.552-25.28l384 296.704a32 32 0 0 1 0 50.656z"  horiz-adv-x="1024" />

    
    <glyph glyph-name="xiaoxi" unicode="&#58894;" d="M506.480838 1.7137109999999893l-83.59683 0L193.004352-123.68557899999996 193.004352 106.19003199999997c-114.594533 80.443168-188.097418 195.893102-188.097418 334.417655 0 242.374995 224.571311 438.876787 501.573905 438.876787 277.00765 0 501.577949-196.501793 501.577949-438.876787C1008.077998 198.19022600000005 783.511743 1.7137109999999893 506.480838 1.7137109999999893L506.480838 1.7137109999999893 506.480838 1.7137109999999893zM506.480838 816.806568c-242.374995 0-438.914199-168.431264-438.914199-376.19787 0-127.489261 74.966978-245.444735 188.139885-313.476486l0-139.338499 167.154227 76.617115 83.600875 0c242.374995 0 438.919254 168.431264 438.919254 376.19787C945.401103 648.3945160000001 748.860888 816.806568 506.480838 816.806568L506.480838 816.806568 506.480838 816.806568zM757.303685 377.91158099999996c-34.651866 0-62.721384 28.064462-62.721384 62.716328 0 34.651866 28.069518 62.721384 62.721384 62.721384 34.609399 0 62.678917-28.069518 62.678917-62.721384C819.982602 405.976043 791.912073 377.91158099999996 757.303685 377.91158099999996L757.303685 377.91158099999996 757.303685 377.91158099999996zM506.480838 377.91158099999996c-34.651866 0-62.716328 28.064462-62.716328 62.716328 0 34.651866 28.064462 62.721384 62.716328 62.721384 34.651866 0 62.721384-28.069518 62.721384-62.721384C569.202222 405.976043 541.132704 377.91158099999996 506.480838 377.91158099999996L506.480838 377.91158099999996 506.480838 377.91158099999996zM255.687313 377.91158099999996c-34.613444 0-62.681951 28.064462-62.681951 62.697117 0 34.633666 28.068507 62.721384 62.681951 62.721384 34.651866 0 62.716328-28.069518 62.716328-62.721384C318.403642 405.957843 290.314912 377.91158099999996 255.687313 377.91158099999996L255.687313 377.91158099999996 255.687313 377.91158099999996zM255.687313 377.91158099999996"  horiz-adv-x="1024" />

    
    <glyph glyph-name="gaofenqiang-pinglunicon" unicode="&#58948;" d="M340.945455 53.527273l107.752727 107.52a32.116364 32.116364 0 0 0 23.272727 9.774545h367.243636a48.872727 48.872727 0 0 1 48.872728 48.872727V485.469091a32.814545 32.814545 0 0 0 65.396363 0v-265.774546A114.269091 114.269091 0 0 0 839.214545 104.727273H485.236364l-153.832728-153.832728a32.581818 32.581818 0 0 0-55.621818 23.272728V104.727273H186.181818a114.269091 114.269091 0 0 0-114.269091 114.269091V668.858182A114.269091 114.269091 0 0 0 186.181818 783.127273h427.054546a32.814545 32.814545 0 0 0 0-65.396364H186.181818a48.872727 48.872727 0 0 1-49.105454-48.872727v-449.163637A48.872727 48.872727 0 0 1 186.181818 170.821818h122.414546a32.581818 32.581818 0 0 0 32.581818-32.814545z m-106.123637 460.101818v65.396364h432.872727v-65.396364z m0-204.101818v65.396363h269.498182v-65.396363z"  horiz-adv-x="1024" />

    
    <glyph glyph-name="live" unicode="&#59063;" d="M797.767442 538.790698c65.488372 0 119.069767-53.581395 119.069767-119.069768v-333.395349c0-65.488372-53.581395-119.069767-119.069767-119.069767H226.232558c-65.488372 0-119.069767 53.581395-119.069767 119.069767V419.72093c0 65.488372 53.581395 119.069767 119.069767 119.069768h571.534884m0 71.44186H226.232558C121.451163 610.2325579999999 35.72093 524.502326 35.72093 419.72093v-333.395349c0-104.781395 85.730233-190.511628 190.511628-190.511628h571.534884c104.781395 0 190.511628 85.730233 190.511628 190.511628V419.72093c0 104.781395-85.730233 190.511628-190.511628 190.511628zM256 786.455814c-9.525581 0-17.860465-3.572093-25.004651-10.716279-14.288372-14.288372-14.288372-36.911628 0-50.009302l176.223256-176.223256c7.144186-7.144186 16.669767-10.716279 25.004651-10.716279 9.525581 0 17.860465 3.572093 25.004651 10.716279 14.288372 14.288372 14.288372 36.911628 0 50.009302L281.004651 776.930233c-7.144186 5.953488-15.47907 9.525581-25.004651 9.525581zM827.534884 886.474419c-9.525581 0-17.860465-3.572093-25.004651-10.716279L526.288372 599.5162789999999c-14.288372-14.288372-14.288372-36.911628 0-50.009302 7.144186-7.144186 16.669767-10.716279 25.004651-10.716279s17.860465 3.572093 25.004651 10.716279L852.539535 824.55814c14.288372 14.288372 14.288372 36.911628 0 50.009302-7.144186 8.334884-15.47907 11.906977-25.004651 11.906977zM628.688372 216.111628L441.748837 63.70232599999997c-14.288372-11.906977-36.911628-1.190698-36.911628 17.860465V400.669767c0 19.051163 22.623256 29.767442 36.911628 17.860466l186.939535-152.409303c16.669767-13.097674 16.669767-36.911628 0-50.009302z"  horiz-adv-x="1024" />

    
    <glyph glyph-name="caidan1" unicode="&#58934;" d="M256 874.666667a234.666667 234.666667 0 0 1 0-469.333334h234.666667V640A234.666667 234.666667 0 0 1 256 874.666667z m170.666667-405.333334h-170.666667a170.666667 170.666667 0 1 0 170.666667 170.666667zM1002.666667 640a234.666667 234.666667 0 0 1-469.333334 0v-234.666667h234.666667a234.666667 234.666667 0 0 1 234.666667 234.666667z m-405.333334 0a170.666667 170.666667 0 1 0 170.666667-170.666667h-170.666667zM768 362.666667H533.333333v-234.666667a234.666667 234.666667 0 1 1 234.666667 234.666667z m0-405.333334a170.666667 170.666667 0 0 0-170.666667 170.666667v170.666667h170.666667a170.666667 170.666667 0 0 0 0-341.333334zM21.333333 128a234.666667 234.666667 0 0 1 469.333334 0V362.666667H256A234.666667 234.666667 0 0 1 21.333333 128z m405.333334 0a170.666667 170.666667 0 1 0-170.666667 170.666667h170.666667z"  horiz-adv-x="1024" />

    
    <glyph glyph-name="yinle" unicode="&#59030;" d="M904.943 164.633c42.062 67.907 66.99 150.264 66.99 238.445l-0.001 0.683C971.919 657.731 766.005 863.644 512 863.644c-254.005 0-459.919-205.913-459.919-459.919l-0.001-0.674c0-83.742 22.479-162.234 61.733-229.77 4.214-7.1 14.11-13.246 25.443-13.246 16.938 0 30.668 13.731 30.668 30.668 0 5.605-1.504 10.86-4.131 15.382-32.916 56.46-52.393 124.454-52.393 196.997l0.001 0.678c0 220.107 178.455 398.562 398.597 398.562s398.597-178.455 398.597-398.597c0-74.17-20.252-145.263-57.995-207.176-2.508-4.348-3.988-9.563-3.988-15.123 0-16.937 13.731-30.668 30.668-30.668 10.688 0 20.1 5.468 25.589 13.76zM747.765 273.771c25.234 40.748 40.189 90.164 40.189 143.075v0.422c0 152.368-123.55 275.919-275.954 275.919s-275.954-123.55-275.954-275.954c0-48.683 12.651-95.605 36.349-136.964 5.288-9.667 15.389-16.115 26.994-16.115 16.937 0 30.668 13.731 30.668 30.668a30.525 30.525 0 0 1-4.53 16.05c-17.678 30.334-28.159 66.927-28.159 105.969v0.413c0 118.519 96.092 214.597 214.632 214.597s214.619-96.079 214.619-214.619c0-39.938-10.889-78.207-31.207-111.544-2.567-4.387-4.083-9.662-4.083-15.289 0-16.937 13.731-30.668 30.667-30.668 10.759 0 20.223 5.54 25.697 13.922zM450.678-56.18c50.801 0 91.989 34.31 91.989 76.643 0 42.345-41.188 76.656-91.989 76.656s-91.989-34.324-91.989-76.656 41.188-76.656 91.989-76.656zM444.195 146.249c-79.233 0-146.038-52.313-146.038-121.013s66.805-121.013 146.038-121.013S590.22-43.464 590.22 25.236s-66.792 121.012-146.025 121.012z m0-61.322c48.197 0 84.703-28.59 84.703-59.691 0-31.088-36.506-59.691-84.703-59.691s-84.716 28.603-84.716 59.704c0 31.088 36.519 59.678 84.716 59.678zM590.273 44.344l10.087 341.655 0.001 0.286c0 16.937-13.731 30.668-30.668 30.668-16.4 0-29.793-12.873-30.626-29.064L528.964 46.16l-0.001-0.27c0-16.937 13.731-30.668 30.668-30.668 16.399 0 29.791 12.871 30.626 29.062z m56.864 396.165c-30.42-4.452-57.813-12.134-83.638-22.835 31.246 11.275 7.509 3.266 4.222 2.477-13.417-3.468-23.167-15.463-23.167-29.736 0-16.937 13.731-30.668 30.667-30.668 2.475 0 4.882 0.293 7.187 0.847 6.275 1.536 31.235 9.952 38.73 12.017 10.521 2.893 21.751 5.287 34.942 7.233 14.581 2.549 25.522 15.113 25.522 30.232 0 16.937-13.731 30.668-30.667 30.668a30.85 30.85 0 0 1-3.951-0.252z"  horiz-adv-x="1024" />

    
    <glyph glyph-name="fanhui" unicode="&#58925;" d="M217.4343 298.687959l318.216298-319.922552a62.70482 62.70482 0 0 0-0.170625-88.511906 62.363569 62.363569 0 0 0-88.298625 0.127969L37.893763 301.887185a67.14108 67.14108 0 0 0-16.55066 10.749398 60.913254 60.913254 0 0 0-20.38973 42.357745 62.619508 62.619508 0 0 0 37.324298 68.548739L438.906018 873.567457A67.055767 67.055767 0 0 0 533.389812 879.24075c25.167241-22.437235 27.428027-61.041223 4.990792-86.25112l-326.065065-366.289994H1301.033312a63.98451 63.98451 0 0 0 63.98451-63.98451v-0.042656a63.98451 63.98451 0 0 0-63.98451-63.984511H217.4343z"  horiz-adv-x="1365" />

    
    <glyph glyph-name="xiayige" unicode="&#58892;" d="M648.564364 371.013818c5.492364 13.312 3.723636 29.556364-6.004364 40.261818l-219.787636 242.501819c-12.008727 13.172364-30.906182 12.567273-42.263273-1.396364a39.098182 39.098182 0 0 1 1.210182-49.245091l197.213091-217.646545-196.421819-220.858182A39.098182 39.098182 0 0 1 381.672727 115.432727a27.834182 27.834182 0 0 1 21.504-10.658909c7.447273 0 14.894545 3.258182 20.712728 9.774546l217.832727 244.829091c0.418909 0.465455 0.558545 1.163636 0.930909 1.675636l1.024 0.977454c1.675636 2.094545 2.606545 4.608 3.723636 6.981819 0.325818 0.698182 0.837818 1.303273 1.117091 2.048z"  horiz-adv-x="1024" />

    
    <glyph glyph-name="bofang2" unicode="&#59230;" d="M512-97.792c-265.728 0-481.792 216.064-481.792 481.792S246.272 865.792 512 865.792c265.728 0 481.792-216.064 481.792-481.792s-216.064-481.792-481.792-481.792M512 896C229.888 896 0 666.112 0 384s229.888-512 512-512 512 229.888 512 512S794.112 896 512 896M434.176 557.056v-346.112l285.184 173.056-285.184 173.056"  horiz-adv-x="1024" />

    
    <glyph glyph-name="quanping" unicode="&#59050;" d="M333.493 467.352l94.83 94.816-165.75 165.787 104.135 103.6H64.097l-0.244-302.126 103.431 104.11zM854.845 135.867L688.61 302.04l-94.805-94.806 165.75-165.796-104.109-103.6h302.61l0.218 302.126zM688.536 467.45L854.31 633.199l103.625-104.12V831.651L655.81 831.92l104.11-103.455-166.211-166.196zM333.59 301.967L167.818 136.195 64.22 240.328v-302.599l302.124-0.231-104.109 103.43 166.187 166.21z"  horiz-adv-x="1024" />

    
    <glyph glyph-name="meirituijian_huaban" unicode="&#58919;" d="M800 752h-90.4a48 48 0 0 1-96 0h-208a48 48 0 0 1-96 0H208a64 64 0 0 1-64-64v-624a64 64 0 0 1 64-64h592a64 64 0 0 1 64 64V688a64 64 0 0 1-64 64zM240 576m32 0l464 0q32 0 32-32l0-416q0-32-32-32l-464 0q-32 0-32 32l0 416q0 32 32 32Z"  horiz-adv-x="1024" />

    
    <glyph glyph-name="zan" unicode="&#58896;" d="M757.76-60.928c-2.56 0-5.12 0-7.68 0.512h-154.112c-55.808 0.512-111.616 7.168-166.4 18.944-56.32 13.824-93.696 23.04-113.664 28.16H312.832l-6.144 1.536h-1.024c-2.048 0-3.584-1.024-4.608-3.072-12.8-27.136-40.448-45.056-70.656-45.568H146.432c-43.52 0-79.36 35.328-79.36 79.36V468.48c0 43.52 35.84 79.36 79.36 79.36h84.48c18.944-0.512 37.888-7.68 52.224-20.48 1.024-1.024 2.048-1.024 3.584-1.024 1.024 0 1.536 0 2.048 0.512l28.672 14.336c103.936 54.784 115.2 164.352 115.2 208.896C432.64 793.6 467.968 829.44 512 829.44c24.064 0 50.176-12.8 73.216-36.352C622.08 755.712 645.12 699.392 645.12 645.12c1.024-30.72-1.024-61.44-7.168-91.648-0.512-1.536 0-3.072 1.024-4.096 1.024-1.024 2.56-2.048 4.096-2.048 25.088-0.512 48.128-1.024 69.632-1.536 81.408-2.048 140.288-3.072 167.936-10.24 43.008-10.24 74.24-48.128 76.288-92.16v-19.968c-1.024-20.992-9.728-41.472-24.064-57.344-1.536-1.536-1.536-4.096-0.512-5.632 10.24-19.456 13.824-41.984 10.24-63.488a132.096 132.096 0 0 0-36.352-75.264c-1.536-1.536-2.048-3.584-1.024-5.632 8.704-23.552 8.704-49.664 0-73.216v-0.512c-6.144-27.648-22.016-52.224-44.032-69.632-1.536-1.024-2.56-3.584-2.048-5.632 4.096-15.36 4.096-31.232 0-46.592-3.072-9.728-7.168-19.456-12.288-29.184-18.432-32.256-52.224-52.224-89.088-52.224z m-8.192 46.592c2.56-0.512 5.12-0.512 7.68-0.512 19.456 0 37.888 10.752 48.128 27.648 3.584 7.168 6.144 14.336 8.192 21.504 1.024 3.584 2.048 7.168 2.048 11.264 0 9.216-3.584 17.92-10.24 24.576-6.656 6.656-15.36 10.24-24.576 10.24h-44.032c-5.12 0-8.704 4.096-8.704 8.704 0 5.12 4.096 8.704 8.704 8.704h46.592c60.928 0 69.632 27.648 77.824 54.272l1.024 4.096c4.608 14.336 7.68 34.816-2.56 49.152-7.68 10.24-20.48 15.36-38.912 15.36h-56.32c-5.12 0-8.704 4.096-8.704 8.704s4.096 8.704 8.704 8.704h67.072c35.84 0.512 65.024 29.696 66.048 65.024 1.024 4.608 1.024 8.704 1.024 13.312-2.048 24.576-23.04 44.032-47.616 44.032H793.088c-5.12 0-8.704 4.096-8.704 8.704 0 5.12 4.096 8.704 8.704 8.704h56.32c10.24 0 61.44 2.048 61.44 46.08v17.92c0.512 22.528-15.36 43.008-37.376 48.128l-3.584 1.024c-22.016 6.144-34.304 9.728-293.888 9.728 17.92 45.056 26.112 94.208 23.552 142.848 0 74.752-53.76 138.24-87.552 138.24-18.432 0-33.28-14.848-33.28-33.28 0-57.856-16.384-199.168-165.376-261.12l-6.144-3.072c-14.848-4.096-25.088-17.408-25.6-32.768v-388.096c0-19.456 17.92-27.648 27.648-29.696 4.096-1.536 7.68-2.56 24.576-6.144s47.616-10.752 105.984-25.088c51.712-11.264 104.448-17.408 156.672-17.92h153.088zM146.432 501.76c-18.432 0-33.28-14.848-33.28-33.28v-450.048c0-18.432 14.848-33.28 33.28-33.28h84.48c18.432 0 33.28 14.848 33.28 33.28V468.48c0 18.432-14.848 33.28-33.28 33.28H146.432zM188.416 102.912c-23.04 0-41.984-18.944-41.984-41.984 0-23.04 18.944-41.984 41.984-41.984s41.984 18.944 41.984 41.984c0.512 23.04-18.432 41.984-41.984 41.984z m0-56.32c-7.68 0-13.824 6.144-13.824 13.824s6.144 13.824 13.824 13.824 13.824-6.144 13.824-13.824-6.144-13.824-13.824-13.824z"  horiz-adv-x="1024" />

    
    <glyph glyph-name="caidan" unicode="&#58886;" d="M800 576L224 576c-17.664 0-32 14.336-32 32s14.336 32 32 32l576 0c17.696 0 32-14.336 32-32S817.696 576 800 576zM800 352L224 352c-17.664 0-32 14.336-32 32s14.336 32 32 32l576 0c17.696 0 32-14.336 32-32S817.696 352 800 352zM800 128L224 128c-17.664 0-32 14.336-32 32s14.336 32 32 32l576 0c17.696 0 32-14.336 32-32S817.696 128 800 128z"  horiz-adv-x="1024" />

    
    <glyph glyph-name="xiayishou" unicode="&#59305;" d="M863.979361 389.362096V863.973341a31.99914 31.99914 0 1 0 63.99828 0v-954.854339a31.99914 31.99914 0 1 0-63.99828 0V359.858889a43.90282 43.90282 0 0 0-17.023543-21.759415L164.158168-115.584334A43.90282 43.90282 0 0 0 96-78.977317V852.069661A43.90282 43.90282 0 0 0 165.054144 888.036694l36.09503-25.279321 646.638622-452.147848c7.551797-5.311857 13.183646-12.799656 16.191565-21.247429zM166.398108-28.802666l607.98366 403.957144-607.98366 425.204572v-829.161716z"  horiz-adv-x="1024" />

    
    <glyph glyph-name="shanchu" unicode="&#58881;" d="M764.42168889 65.48479999999995c0-30.23530667-24.61013333-54.84430222-54.84316444-54.84430222H314.42147555c-30.23416889 0-54.84316445 24.61013333-54.84316444 54.84430222V647.67203555h504.84337778v-582.18723555zM369.26577778 746.10915555c0 6.32832 4.92202667 11.25034667 11.25034667 11.25034667H644.18702222c6.32832 0 11.25034667-4.92202667 11.25034667-11.25034667v-33.04675555H369.26577778V746.10915555z m559.68768-33.04675555H720.82773333V746.10915555c0 42.1888-34.45191111 76.64071111-76.64071111 76.64071112H380.51612445c-42.1888 0-76.64071111-34.45191111-76.64071112-76.64071112v-33.04675555h-208.82773333c-18.28181333 0-33.04789333-14.76608-33.04789333-33.04675555s14.76608-33.04675555 33.04675555-33.04675556h98.43825778v-581.48408889c0-66.79779555 54.14001778-120.93781333 120.93667555-120.93781333h395.1570489c66.79665778 0 120.93667555 54.14001778 120.93667555 120.93781333V647.67203555h98.43825778c18.28067555 0 33.04675555 14.76494222 33.04675555 33.04675556s-14.76608 32.34360889-33.04675555 32.34360889zM512 109.78076444999999c18.28181333 0 33.04675555 14.76608 33.04675555 33.04789333v351.56195555c0 18.28181333-14.76494222 33.04675555-33.04675555 33.04675556s-33.04675555-14.76494222-33.04675555-33.04675556v-351.56195555c0-18.28181333 14.76494222-33.04789333 33.04675555-33.04789333m-153.98456889 0c18.28181333 0 33.04675555 14.76608 33.04675556 33.04789333v351.56195555c0 18.28181333-14.76494222 33.04675555-33.04675556 33.04675556s-33.04675555-14.76494222-33.04675556-33.04675556v-351.56195555c0.70314667-18.28181333 15.46922667-33.04789333 33.04675556-33.04789333m307.96913778 0c18.28067555 0 33.04675555 14.76608 33.04675556 33.04789333v351.56195555c0 18.28181333-14.76608 33.04675555-33.04675556 33.04675556s-33.04675555-14.76494222-33.04675556-33.04675556v-351.56195555c0-18.28181333 14.76494222-33.04789333 33.04675556-33.04789333"  horiz-adv-x="1024" />

    
    <glyph glyph-name="xiayishou1" unicode="&#58884;" d="M160.020639 378.63790400000005L160.020639-95.973341a31.99914 31.99914 0 1 0-63.99828 0l0 954.854339a31.99914 31.99914 0 1 0 63.99828 0L160.020639 408.141111a43.90282 43.90282 0 0 0 17.023543 21.759415L859.841832 883.584334A43.90282 43.90282 0 0 0 928 846.977317L927.99999999-84.069661A43.90282 43.90282 0 0 0 858.945856-120.03669400000001l-36.09503 25.279321-646.638622 452.147848c-7.55179699 5.311857-13.183646 12.799656-16.191565 21.247429zM857.60189199 796.802666l-607.98365999-403.957144 607.98366-425.204572-1e-8 829.161716z"  horiz-adv-x="1024" />

    
    <glyph glyph-name="icon_common_tip_normal" unicode="&#58891;" d="M514.7-12.5c-53 0-104.5 10.4-152.9 30.9-46.8 19.8-88.8 48.1-124.9 84.2-36.1 36.1-64.4 78.1-84.2 124.9-20.5 48.5-30.9 99.9-30.9 152.9s10.4 104.5 30.9 152.9c19.8 46.8 48.1 88.8 84.2 124.9 36.1 36.1 78.1 64.4 124.9 84.2 48.5 20.5 99.9 30.9 152.9 30.9s104.5-10.4 152.9-30.9c46.8-19.8 88.8-48.1 124.9-84.2s64.4-78.1 84.2-124.9c20.5-48.5 30.9-99.9 30.9-152.9s-10.4-104.5-30.9-152.9c-19.8-46.8-48.1-88.8-84.2-124.9-36.1-36.1-78.1-64.4-124.9-84.2-48.5-20.5-99.9-30.9-152.9-30.9z m0 735.7c-189.1 0-342.9-153.8-342.9-342.9 0-189.1 153.8-342.9 342.9-342.9 189.1 0 342.9 153.8 342.9 342.9-0.1 189.1-153.9 342.9-342.9 342.9zM283.8 380.4a39.9 39.9 0 1 1 79.8 0 39.9 39.9 0 1 1-79.8 0zM476 380.4a39.9 39.9 0 1 1 79.8 0 39.9 39.9 0 1 1-79.8 0zM665.8 380.4a39.9 39.9 0 1 1 79.8 0 39.9 39.9 0 1 1-79.8 0z"  horiz-adv-x="1024" />

    
    <glyph glyph-name="laba" unicode="&#60426;" d="M548.864 670.72c-6.144 2.048-14.336 4.096-20.48 4.096-12.288 0-24.576-4.096-32.768-12.288l-178.176-151.552h-143.36c-10.24 0-20.48-4.096-30.72-10.24h-2.048l-8.192-8.192c-6.144-6.144-10.24-18.432-10.24-28.672v-260.096c0-14.336 6.144-28.672 14.336-36.864 8.192-8.192 24.576-14.336 36.864-14.336h141.312l178.176-147.456c8.192-6.144 20.48-14.336 30.72-14.336 4.096 0 14.336 0 24.576 6.144 8.192 4.096 16.384 10.24 20.48 16.384 4.096 8.192 8.192 16.384 8.192 28.672V625.664c0 12.288-2.048 20.48-8.192 28.672-2.048 8.192-10.24 14.336-20.48 16.384z m-22.528-51.2v-573.44l-184.32 151.552-8.192 6.144H176.128V457.728h159.744l190.464 161.792z m342.016-98.304c-18.432 28.672-40.96 55.296-67.584 75.776-2.048 0-2.048 2.048-2.048 2.048-4.096 2.048-8.192 4.096-14.336 4.096-8.192 0-18.432-4.096-28.672-12.288-8.192-12.288-4.096-32.768 8.192-40.96 6.144-2.048 12.288-8.192 18.432-14.336 8.192-8.192 20.48-20.48 34.816-40.96 22.528-32.768 47.104-88.064 47.104-169.984 0-81.92-24.576-137.216-45.056-169.984-12.288-20.48-24.576-32.768-32.768-40.96-8.192-8.192-14.336-12.288-18.432-14.336-12.288-8.192-14.336-24.576-8.192-40.96 4.096-6.144 14.336-12.288 24.576-12.288 4.096 0 12.288 0 16.384 4.096l2.048 2.048c24.576 20.48 47.104 45.056 65.536 73.728 34.816 57.344 51.2 122.88 51.2 196.608 2.048 77.824-16.384 143.36-51.2 198.656z m0 0M737.28 453.632c-20.48 24.576-43.008 36.864-47.104 36.864h-2.048l-2.048 2.048c-2.048 2.048-6.144 2.048-10.24 2.048-10.24 0-22.528-6.144-24.576-14.336-4.096-6.144-4.096-12.288-2.048-20.48s8.192-14.336 12.288-14.336c0 0 14.336-8.192 30.72-26.624 14.336-16.384 28.672-45.056 28.672-86.016 0-86.016-49.152-114.688-53.248-116.736-12.288-8.192-20.48-24.576-12.288-36.864 4.096-8.192 16.384-16.384 24.576-16.384 4.096 0 8.192 0 10.24 4.096l2.048 2.048h2.048c6.144 2.048 24.576 14.336 45.056 38.912 18.432 24.576 40.96 65.536 40.96 131.072 0 53.248-24.576 92.16-43.008 114.688z m0 0"  horiz-adv-x="1024" />

    
    <glyph glyph-name="jia" unicode="&#58954;" d="M828.96896 442.14272H572.19072V699.392a59.392 59.392 0 0 1-118.784 0v-257.24928H196.608a59.392 59.392 0 0 1 0-118.784h256.77824V66.56a59.392 59.392 0 0 1 118.784 0V323.35872H829.44a59.26912 59.26912 0 0 1 59.392 59.392 60.25216 60.25216 0 0 1-59.86304 59.392z m0 0"  horiz-adv-x="1024" />

    
    <glyph glyph-name="shipin" unicode="&#58895;" d="M417.831 195.663a18.64 18.64 0 0 0-8.437 1.996 18.865 18.865 0 0 0-10.396 16.838V553.503c0 7.12 4.03 13.674 10.396 16.838s14.012 2.486 19.738-1.77l226.004-169.504c4.746-3.54 7.534-9.153 7.534-15.067s-2.788-11.526-7.534-15.067L429.132 199.43a18.863 18.863 0 0 0-11.3-3.767z m18.834 320.173v-263.672L612.46 384 436.665 515.836zM869.84 685.34H154.16c-10.397 0-18.834-8.438-18.834-18.834v-565.012c0-10.396 8.437-18.833 18.834-18.833h715.68c10.397 0 18.834 8.437 18.834 18.833V666.506c0 10.396-8.437 18.833-18.834 18.833zM248.328 346.332h-75.335v75.334h75.335v-75.334z m0 113.002h-75.335V534.67h75.335v-75.335z m-75.335-150.67h75.335v-75.335h-75.335v75.335z m113.003 339.007h452.008v-527.344H285.996V647.672z m489.676-226.005h75.335v-75.334h-75.335v75.334z m0 37.668V534.67h75.335v-75.335h-75.335z m0-150.67h75.335v-75.335h-75.335v75.335z m75.335 263.672h-75.335v75.335h75.335v-75.335z m-602.679 75.335v-75.335h-75.335v75.335h75.335z m-75.335-452.01h75.335v-75.334h-75.335v75.335z m602.679-75.334v75.335h75.335v-75.335h-75.335z"  horiz-adv-x="1024" />

    
    <glyph glyph-name="jingyunyinxiaopt" unicode="&#58985;" d="M634.07 797.55c-50.47 0-95-25.15-121.97-63.53-26.97 38.38-71.5 63.53-121.97 63.53H64.87V699.28c0-125.37 101.63-227.01 227.01-227.01 29.89 0 54.21-24.32 54.21-54.21v-121.95c0-14.97 12.14-27.11 27.11-27.11 14.97 0 27.11 12.14 27.11 27.11V418.06c0 59.88-48.54 108.42-108.42 108.42-95.28 0-172.79 77.52-172.79 172.79v44.06h271.05c52.21 0 94.68-42.39 94.85-94.56v-68.45c0-14.97 12.14-27.11 27.11-27.11 14.97 0 27.11 12.14 27.11 27.11v68.14h0.02c0 52.31 42.56 94.87 94.87 94.87h271.05v-44.06c0-95.28-77.52-172.79-172.79-172.79-59.88 0-108.42-48.54-108.42-108.42V269c-0.01-143.46-124.5-258.4-271.13-242.45-111.11 12.08-201.3 101.19-214.9 212.12-6.19 50.52 3.35 98.36 24.2 139.57 9.18 18.14-3.85 39.53-24.18 39.53-10.44 0-19.87-6.01-24.55-15.34C92 359.81 80.48 311.4 81.98 260.12 86.4 107.42 208.99-19.4 361.5-28.59c173.04-10.43 316.62 126.82 316.62 297.6V418.06c0 29.89 24.32 54.21 54.21 54.21 125.37 0 227.01 101.63 227.01 227.01V797.55H634.07z"  horiz-adv-x="1024" />

    
    <glyph glyph-name="gedan" unicode="&#58890;" d="M606.7 716.2H80.5c-10.1 0-18.5-8.3-18.5-18.5v-117c0-10.1 8.3-18.5 18.5-18.5h526.3c10.1 0 18.5 8.3 18.5 18.5v117c-0.3 10.1-8.4 18.5-18.6 18.5z m-23.1-112.3h-480v70.9h479.9v-70.9zM435.3 322.9H82.9c-11.5 0-20.9 9.2-20.9 20.9 0 11.5 9.5 20.9 20.9 20.9h331.4v75.2H82.9c-11.5 0-20.9 9.5-20.9 20.9 0 11.5 9.5 20.9 20.9 20.9h352.4c11.5 0 20.9-9.2 20.9-20.9v-117c0-11.7-9.4-20.9-20.9-20.9zM258.2 241.89999999999998H80.5c-10.1 0-18.5-8.3-18.5-18.5v-117c0-10.1 8.3-18.5 18.5-18.5h177.8c10.1 0 18.5 8.3 18.5 18.5v117c-0.1 10.1-8.5 18.5-18.6 18.5z m-22.9-112.3H103.6v70.9h131.6v-70.9zM960 778.5c-5 10.4-17.3 14.9-27.7 10.1L742 671.2c-7.2-3.4-11.9-10.8-11.9-18.9v-378.9l-33.8 23.4C667 317.20000000000005 632.6 328 596.8 328h-0.2c-96.8 0-175.3-78.5-175.3-175.3s78.5-175.3 175.3-175.3c96.5 0 175.3 78.5 175.3 175.3V639l178.6 112c9.9 4.8 14.4 17.4 9.5 27.5zM596.8 19.600000000000023c-73.6 0-133.2 59.8-133.2 133.2 0 73.6 59.8 133.2 133.2 133.2S730 226.10000000000002 730 152.79999999999995c0-73.6-59.8-133.2-133.2-133.2zM103.6 200.20000000000005h131.6v-70.9H103.6zM103.6 674.5h479.9v-70.9H103.6z"  horiz-adv-x="1024" />

    
    <glyph glyph-name="icon-test" unicode="&#58944;" d="M832 128v-64H192v64H128v-128h768v128zM822.624 457.376l-45.248 45.248L544 269.248V768h-64v-498.752l-233.376 233.376-45.248-45.248L512 146.752z"  horiz-adv-x="1024" />

    
    <glyph glyph-name="del" unicode="&#58887;" d="M512 423.33173089L367.84855732 567.515625a27.81129776 27.81129776 0 1 1-39.33173008-39.33173089L472.63581768 384l-144.18389492-144.15144268a27.81129776 27.81129776 0 1 1 39.3317309-39.33173008L512 344.63581767999995l144.15144268-144.18389492a27.81129776 27.81129776 0 1 1 39.33173008 39.3317309L551.36418232 384l144.18389492 144.15144268a27.81129776 27.81129776 0 1 1-39.3317309 39.33173008L512 423.36418232z"  horiz-adv-x="1024" />

    
    <glyph glyph-name="bofang1" unicode="&#59253;" d="M512-128C229.216-128 0 101.216 0 384S229.216 896 512 896s512-229.216 512-512-229.216-512-512-512z m0 31.04c265.632 0 480.96 215.328 480.96 480.96C992.96 649.632 777.632 864.96 512 864.96 246.368 864.96 31.04 649.632 31.04 384c0-265.632 215.328-480.96 480.96-480.96z m-93.12 667.136a31.04 31.04 0 0 0 31.04-31.04v-310.272a31.04 31.04 0 0 0-62.048 0v310.272a31.04 31.04 0 0 0 31.04 31.04z m186.24 0a31.04 31.04 0 0 0 31.008-31.04v-310.272a31.04 31.04 0 1 0-62.08 0v310.272a31.04 31.04 0 0 0 31.04 31.04z"  horiz-adv-x="1024" />

    
    <glyph glyph-name="juxing" unicode="&#58885;" d="M151.703704 727.381333v-212.688592a18.962963 18.962963 0 0 1 29.639111-15.663408l155.97037 106.344297a18.962963 18.962963 0 0 1 0 31.326814L181.342815 743.0447409999999A18.962963 18.962963 0 0 1 151.703704 727.381333zM474.074074 649.481481m28.444445 0l341.333333 0q28.444444 0 28.444444-28.444444l0 0q0-28.444444-28.444444-28.444444l-341.333333 0q-28.444444 0-28.444445 28.444444l0 0q0 28.444444 28.444445 28.444444ZM151.703704 365.03703700000005m28.444444 0l663.703704 0q28.444444 0 28.444444-28.444444l0 0q0-28.444444-28.444444-28.444445l-663.703704 0q-28.444444 0-28.444444 28.444445l0 0q0 28.444444 28.444444 28.444444ZM151.703704 80.59259299999997m28.444444 0l663.703704 0q28.444444 0 28.444444-28.444445l0 0q0-28.444444-28.444444-28.444444l-663.703704 0q-28.444444 0-28.444444 28.444444l0 0q0 28.444444 28.444444 28.444445Z"  horiz-adv-x="1024" />

    
    <glyph glyph-name="customer-service-line" unicode="&#59024;" d="M938.666667 170.581333a256.085333 256.085333 0 0 0-201.088-250.026666l-27.221334 81.664A170.794667 170.794667 0 0 1 830.506667 85.333333H725.333333a85.333333 85.333333 0 0 0-85.333333 85.333334v170.666666a85.333333 85.333333 0 0 0 85.333333 85.333334h125.354667a341.376 341.376 0 0 1-677.376 0H298.666667a85.333333 85.333333 0 0 0 85.333333-85.333334v-170.666666a85.333333 85.333333 0 0 0-85.333333-85.333334H170.666667a85.333333 85.333333 0 0 0-85.333334 85.333334v213.333333C85.333333 619.648 276.352 810.666667 512 810.666667s426.666667-191.018667 426.666667-426.666667v-213.418667zM853.333333 170.666667v170.666666h-128v-170.666666h128zM170.666667 341.333333v-170.666666h128v170.666666H170.666667z"  horiz-adv-x="1024" />

    
    <glyph glyph-name="shoucangjia" unicode="&#59034;" d="M1060.352 737.792H565.248L494.592 879.104h-353.28c-78.336 0-141.312-63.488-141.312-141.312V30.72c0-78.336 63.488-141.312 141.312-141.312H1060.352c78.336 0 141.312 63.488 141.312 141.312V595.968c0.512 78.336-62.976 141.824-141.312 141.824z m71.168-707.584c0-38.912-31.744-70.656-70.656-70.656H141.312c-38.912 0-70.656 31.744-70.656 70.656V737.792c0 38.912 31.744 70.656 70.656 70.656H451.072l70.656-141.312H1060.352c38.912 0 70.656-31.744 70.656-70.656v-566.272zM762.88 356.864h-123.904V480.256c0 24.576-19.968 44.032-44.032 44.032-24.576 0-44.032-19.968-44.032-44.032v-123.904H427.008c-24.576 0-44.032-19.968-44.032-44.032 0-24.576 19.968-44.032 44.032-44.032h123.904v-123.904c0-24.576 19.968-44.032 44.032-44.032 24.576 0 44.032 19.968 44.032 44.032v123.904h123.904c24.576 0 44.032 19.968 44.032 44.032 0.512 24.576-19.456 44.544-44.032 44.544z"  horiz-adv-x="1201" />

    


  </font>
</defs>
</svg>
